<svg version="1.1" id="Layer_1" xmlns="http://www.w3.org/2000/svg" xmlns:xlink="http://www.w3.org/1999/xlink" x="0px" y="0px"
	 width="100%" viewBox="0 0 1024 1024" enable-background="new 0 0 1024 1024" xml:space="preserve">
<path fill="#000000" opacity="1.000000" stroke="none" 
	d="
M354.919189,378.726593 
	C345.872681,401.584930 331.579315,420.208282 313.225006,435.681244 
	C307.886871,440.181335 305.334473,444.896881 305.918365,451.888214 
	C306.329956,456.817108 305.757141,461.867096 305.242096,466.823334 
	C304.742310,471.633148 302.436646,475.703156 298.652100,478.759277 
	C288.676788,486.814636 278.646576,494.802063 268.618652,502.791992 
	C267.712952,503.513641 266.717834,504.166077 265.675781,504.666443 
	C259.773590,507.500580 253.782486,504.028900 253.700180,497.499268 
	C253.626938,491.691071 253.386658,485.875031 254.402420,480.061829 
	C255.021591,476.518341 254.963699,472.814636 254.298782,469.297485 
	C252.659180,468.574860 251.457916,469.338593 250.316559,469.909546 
	C245.438187,472.349792 241.200607,471.035797 237.515884,467.577057 
	C231.567383,461.993286 225.795990,456.221313 219.909042,450.571320 
	C215.668259,446.501312 214.855530,442.100616 217.348846,436.587555 
	C219.748047,431.282593 218.855545,430.436920 213.279404,431.189270 
	C205.877487,432.187958 198.471176,433.154236 191.069519,434.154816 
	C187.318771,434.661835 183.972580,433.948730 181.971191,430.467316 
	C179.887466,426.842682 178.983795,423.167480 182.066589,419.379272 
	C190.681091,408.793640 199.085831,398.036865 207.734375,387.479614 
	C212.248749,381.968964 218.870087,381.281830 225.370102,380.713562 
	C230.995438,380.221680 236.637543,379.845490 242.280182,379.661682 
	C244.888458,379.576752 246.050034,377.949677 247.346603,376.184723 
	C257.967560,361.726837 270.047760,348.708557 285.225342,338.920166 
	C302.135315,328.014465 320.618530,321.487427 340.707764,319.551361 
	C344.343719,319.200958 347.934601,318.531433 351.619507,318.679657 
	C360.388824,319.032440 362.946167,321.857330 363.397034,330.609283 
	C364.251526,347.195007 360.887390,362.980682 354.919189,378.726593 
M302.680420,393.715515 
	C312.501160,396.842682 324.859192,385.593262 322.271423,375.099426 
	C320.375854,367.412476 313.977539,362.242371 306.530518,362.393219 
	C298.901550,362.547760 291.867157,368.931915 290.480316,376.959900 
	C289.342346,383.547119 294.084900,390.423370 302.680420,393.715515 
z"/>
<path fill="#000000" opacity="1.000000" stroke="none" 
	d="
M106.651619,570.058594 
	C106.823479,566.601624 106.243065,563.586121 107.122971,560.660645 
	C109.011299,559.852905 110.396240,561.062073 111.834190,561.721313 
	C148.006516,578.306030 184.162857,594.925598 220.328323,611.525208 
	C223.353531,612.913818 226.458664,614.130737 229.465546,615.556335 
	C238.857468,620.009094 248.116623,619.396545 257.399750,615.152405 
	C294.803650,598.051819 332.221588,580.981873 369.659576,563.956177 
	C372.160706,562.818726 374.484436,560.963562 378.139893,561.265564 
	C378.334351,571.574890 379.007446,581.847839 377.822693,592.057922 
	C377.284180,596.698792 374.163849,600.143921 369.721466,602.157288 
	C331.513824,619.473877 293.291382,636.758179 255.135635,654.188416 
	C246.656128,658.062012 238.427475,657.834290 230.101257,654.094727 
	C193.043732,637.450867 155.936020,620.922058 119.262230,603.431091 
	C110.093307,599.058167 105.827881,592.613403 106.604134,582.539490 
	C106.910431,578.564392 106.652779,574.545776 106.651619,570.058594 
z"/>
<path fill="#000000" opacity="1.000000" stroke="none" 
	d="
M378.349365,526.803223 
	C378.960175,533.487183 375.954803,537.103333 370.402924,539.588562 
	C333.332367,556.182922 296.306580,572.878113 259.325317,589.670532 
	C247.862289,594.875610 236.865158,594.905334 225.265350,589.544983 
	C189.147552,572.854797 152.863510,556.521118 116.534630,540.293823 
	C109.486259,537.145447 106.307632,532.419250 106.596703,524.802429 
	C106.859451,517.879456 106.652306,510.938629 106.652306,504.216187 
	C109.428291,503.398346 110.895592,504.764313 112.505241,505.504181 
	C150.018829,522.747009 187.620331,539.803711 224.971588,557.391785 
	C237.555893,563.317505 248.988663,563.094360 261.640503,557.129883 
	C298.834412,539.595459 336.420685,522.893250 373.859283,505.878326 
	C375.035858,505.343597 376.176056,504.491028 378.349365,505.244934 
	C378.349365,512.123901 378.349365,519.226990 378.349365,526.803223 
z"/>
<path fill="#000000" opacity="1.000000" stroke="none" 
	d="
M420.110352,496.944031 
	C411.214294,488.446136 406.755615,477.673279 408.213837,467.737091 
	C416.031677,467.737091 423.965179,467.730164 431.898712,467.741974 
	C433.892792,467.744934 434.074402,469.336548 434.606537,470.757355 
	C440.514954,486.532837 459.867065,492.038727 473.468994,481.847687 
	C480.769806,476.377655 480.597046,466.790955 472.928009,461.756317 
	C466.247742,457.370758 458.355255,456.315613 450.819580,454.374634 
	C443.722321,452.546631 436.623566,450.741699 430.140228,447.225342 
	C405.203033,433.700165 403.905762,400.896118 427.659149,385.372711 
	C444.783081,374.181824 471.689819,374.923126 487.937561,387.343964 
	C497.304108,394.504364 502.051605,404.249634 502.678162,416.803162 
	C494.683807,416.803162 486.968567,416.911438 479.260529,416.724365 
	C477.414124,416.679565 476.966248,414.512024 476.209381,413.069550 
	C470.077271,401.382263 457.985779,397.090637 445.724792,402.224640 
	C440.313354,404.490509 436.913666,408.364441 436.886963,414.328094 
	C436.861237,420.076263 440.070831,424.017670 445.261444,426.247650 
	C453.393066,429.741058 462.109802,431.297913 470.569672,433.706696 
	C479.066711,436.126099 487.629700,438.525452 494.530945,444.400970 
	C509.186981,456.878693 508.881500,482.028717 494.108551,495.481628 
	C485.625549,503.206635 475.404053,506.977448 464.279510,508.048920 
	C448.473755,509.571320 433.370178,507.435150 420.110352,496.944031 
z"/>
<path fill="#000000" opacity="1.000000" stroke="none" 
	d="
M471.357147,607.723633 
	C461.141571,610.534973 451.099548,609.256409 441.158203,609.258789 
	C436.438080,609.259888 435.169586,610.834351 435.263733,615.333862 
	C435.517181,627.450134 435.350342,639.575195 435.350342,652.310242 
	C427.395020,652.310242 419.961426,652.320374 412.527924,652.302917 
	C410.735260,652.298767 409.768250,651.370422 409.730560,649.542297 
	C409.706573,648.377319 409.656158,647.212402 409.656036,646.047485 
	C409.651794,608.747009 409.744812,571.446106 409.543457,534.146729 
	C409.516022,529.061951 411.012573,527.497986 416.047607,527.695862 
	C432.500519,528.342590 448.987366,526.956543 465.440338,528.610901 
	C485.838715,530.661926 500.166138,546.182556 500.338196,566.704529 
	C500.519928,588.383057 490.587708,602.579285 471.357147,607.723633 
M435.392456,585.917908 
	C435.478882,587.445251 436.166595,588.554626 437.789062,588.542480 
	C446.065765,588.480652 454.460907,589.780273 462.499878,586.702942 
	C470.650909,583.582703 475.710083,575.239624 474.554443,566.987366 
	C473.180725,557.177795 467.221497,551.162354 457.572174,550.402100 
	C451.939667,549.958252 446.249359,550.291199 440.603424,549.960876 
	C436.343445,549.711609 435.188049,551.535095 435.278748,555.545288 
	C435.500916,565.369019 435.357910,575.200867 435.392456,585.917908 
z"/>
<path fill="#000000" opacity="1.000000" stroke="none" 
	d="
M373.669708,481.793457 
	C335.156250,499.309662 296.939636,516.569397 258.796936,533.990906 
	C247.928009,538.955200 237.354630,538.959961 226.678268,533.636475 
	C219.737854,530.175842 212.470505,527.345215 204.684647,522.626404 
	C218.327225,513.467529 232.106842,506.124329 242.213043,492.224548 
	C243.207794,496.208649 243.791306,498.380188 244.290222,500.571045 
	C247.327240,513.907043 261.649567,519.984863 272.499634,511.872650 
	C283.945801,503.314758 294.763397,493.909058 305.755585,484.753601 
	C312.932404,478.775970 316.159515,470.491364 315.411041,461.659973 
	C314.454865,450.378113 317.170837,441.522156 326.784882,435.166779 
	C327.602417,434.626373 328.218323,433.781494 328.929718,433.079926 
	C338.945282,423.202911 338.957245,423.176086 351.661530,428.794647 
	C357.140839,431.217896 362.421967,434.159790 368.038849,436.184448 
	C375.927856,439.028168 379.116638,444.611389 379.164764,452.558655 
	C379.204071,459.052887 379.340393,465.547943 379.272339,472.040924 
	C379.229828,476.095917 377.737274,479.508667 373.669708,481.793457 
z"/>
<path fill="#000000" opacity="1.000000" stroke="none" 
	d="
M769.650513,462.999908 
	C769.650879,436.852142 769.739929,411.203796 769.567932,385.557190 
	C769.538025,381.105011 770.697571,379.151917 775.418884,379.554688 
	C779.552551,379.907318 783.764893,379.918365 787.896973,379.558319 
	C792.825745,379.128876 794.515747,380.686737 794.440369,385.894348 
	C794.144104,406.374908 794.325989,426.862335 794.330261,447.347229 
	C794.330627,448.992340 794.330322,450.637451 794.330322,453.679199 
	C799.973877,447.199158 804.842224,441.678314 809.631653,436.089844 
	C814.179260,430.783691 818.717224,425.465729 823.112061,420.033752 
	C825.050964,417.637329 827.223328,416.523926 830.376465,416.598663 
	C837.974915,416.778748 845.580444,416.657043 853.850891,416.657043 
	C851.877930,421.178345 848.585144,423.584625 846.098389,426.519012 
	C839.644287,434.135010 832.948425,441.559601 826.069702,448.794952 
	C823.748474,451.236450 823.771240,452.961639 825.468933,455.632996 
	C834.932312,470.523926 844.241760,485.512695 853.604919,500.467377 
	C854.553589,501.982605 855.737854,503.392212 856.057983,505.901978 
	C849.952271,506.809052 843.971741,505.718353 838.167847,506.469269 
	C830.534668,507.456909 825.968323,504.717865 822.352966,497.833466 
	C817.423096,488.446075 811.298950,479.685913 805.233337,469.927185 
	C799.933655,475.504913 793.185730,479.044464 794.224854,488.024933 
	C794.776184,492.790009 794.248657,497.673859 794.326294,502.502167 
	C794.370300,505.236877 793.235535,506.411255 790.466492,506.363373 
	C785.138855,506.271240 779.801880,506.190521 774.481201,506.409363 
	C770.775330,506.561737 769.551941,505.125366 769.596680,501.471375 
	C769.751709,488.815918 769.652954,476.157318 769.650513,462.999908 
z"/>
<path fill="#000000" opacity="1.000000" stroke="none" 
	d="
M658.337891,460.000854 
	C658.335327,466.833771 658.376770,473.167206 658.318909,479.499786 
	C658.238525,488.303955 657.781128,497.144592 662.677734,506.257935 
	C654.642334,506.257935 647.739624,506.279419 640.837219,506.243774 
	C638.964355,506.234100 638.476501,504.626862 637.844482,503.292480 
	C637.068115,501.653351 636.365662,499.979187 635.371582,497.733551 
	C628.995056,502.552216 622.590088,506.726776 614.844482,507.808746 
	C600.233459,509.849823 588.481506,508.006775 581.374573,496.832886 
	C573.229797,484.027161 575.327087,462.834534 597.366211,455.717133 
	C605.969482,452.938751 614.971313,452.444244 623.743103,450.659424 
	C625.366760,450.329041 627.000305,449.950928 628.551941,449.383301 
	C631.606262,448.265961 633.554749,446.261200 633.687439,442.755920 
	C633.814453,439.399231 632.482361,437.010376 629.578613,435.369080 
	C620.016357,429.964355 608.141907,434.043304 604.153564,444.243805 
	C603.298096,446.431702 602.058411,447.404510 599.713684,447.353638 
	C595.216064,447.255981 590.712708,447.237335 586.216003,447.352844 
	C583.347900,447.426514 582.609558,446.172455 582.573853,443.430450 
	C582.410645,430.868896 592.634216,419.134583 607.292847,415.869598 
	C616.649109,413.785583 626.149109,413.812195 635.482544,416.129517 
	C650.044006,419.744873 657.793762,429.654968 658.284363,445.002380 
	C658.438660,449.830902 658.327332,454.667877 658.337891,460.000854 
M631.336121,480.679962 
	C634.679443,475.754089 634.058105,470.426788 633.444824,464.428955 
	C624.539795,466.769653 615.737610,466.734955 607.954895,470.934052 
	C604.280396,472.916626 602.079407,476.097717 602.580566,480.269470 
	C603.094482,484.547974 605.659912,487.597443 610.075256,488.602386 
	C618.531555,490.527100 625.370544,487.734222 631.336121,480.679962 
z"/>
<path fill="#000000" opacity="1.000000" stroke="none" 
	d="
M678.371521,582.779663 
	C687.354126,599.562317 687.973633,616.279785 678.651123,632.532043 
	C669.668701,648.191162 655.052979,655.116394 637.434570,655.196045 
	C617.161255,655.287720 600.042053,642.727478 593.683777,624.071777 
	C586.775330,603.802246 592.189331,582.987122 608.210876,570.513794 
	C629.570312,553.884766 663.406067,558.255432 678.371521,582.779663 
M635.174072,634.064758 
	C645.045410,635.344055 653.824707,630.064636 657.189087,620.035583 
	C660.123291,611.288879 659.962952,602.284302 656.368469,593.696411 
	C653.181641,586.082642 646.910156,581.991089 638.845276,581.635376 
	C631.214050,581.298828 624.828979,584.523071 620.967529,591.397217 
	C615.095398,601.850708 615.083191,612.617432 620.169250,623.370972 
	C622.998291,629.352417 627.830383,632.851501 635.174072,634.064758 
z"/>
<path fill="#000000" opacity="1.000000" stroke="none" 
	d="
M128.321838,431.175568 
	C142.631546,425.068970 156.593521,419.119965 171.803391,412.639252 
	C166.935318,433.750580 174.859589,444.187958 194.583710,445.222778 
	C195.412262,447.284088 194.160004,448.027802 193.098831,448.782532 
	C185.768173,453.995911 181.231583,461.312103 177.926346,469.422455 
	C173.722092,479.738739 169.692596,490.130707 165.836868,500.581970 
	C164.546265,504.080231 162.983124,504.892609 159.539810,503.298615 
	C145.198349,496.659485 130.953842,489.751831 116.304901,483.859711 
	C108.387268,480.675079 106.035072,475.117523 105.828995,467.660187 
	C105.658882,461.504364 105.567657,455.336945 105.750748,449.183899 
	C105.886726,444.614166 107.697189,440.790710 112.150887,438.718231 
	C117.428062,436.262482 122.699936,433.795380 128.321838,431.175568 
z"/>
<path fill="#000000" opacity="1.000000" stroke="none" 
	d="
M745.177612,423.750854 
	C753.057495,430.393524 757.171692,438.563049 758.250549,449.227692 
	C750.380981,449.227692 742.955811,449.244904 735.530762,449.212646 
	C734.110352,449.206482 733.596008,447.999573 733.180786,446.931091 
	C729.561829,437.619812 722.535217,434.148346 712.973022,435.263306 
	C703.632690,436.352417 699.394409,442.874176 697.020813,451.010223 
	C694.728516,458.867767 694.857544,466.772064 697.715088,474.492645 
	C700.481018,481.965576 705.635071,486.897797 713.791870,487.554321 
	C722.295898,488.238800 729.162659,485.299347 732.976685,477.083801 
	C733.763062,475.389893 734.554443,473.786194 736.860291,473.800293 
	C743.818176,473.842896 750.776550,473.815704 757.539124,473.815704 
	C758.840088,476.239624 758.178101,478.103973 757.616882,480.029449 
	C752.996582,495.880463 738.205017,507.085419 720.220276,508.308655 
	C699.375366,509.726410 681.377380,499.321747 673.687134,481.407593 
	C665.297058,461.863068 669.721741,439.706177 684.767151,425.924805 
	C700.345581,411.655212 727.080933,410.589142 745.177612,423.750854 
z"/>
<path fill="#000000" opacity="1.000000" stroke="none" 
	d="
M560.799683,506.358612 
	C553.862915,506.159424 547.375671,506.973145 540.953979,505.377350 
	C531.551758,503.040802 525.649597,496.047028 524.618530,486.312714 
	C523.175842,472.691498 524.044495,459.049713 523.910706,445.419525 
	C523.804138,434.562775 523.744202,436.397552 515.183167,436.335968 
	C514.214966,436.329010 513.248230,436.113983 511.935272,435.953125 
	C511.935272,429.586853 511.935272,423.364471 511.935272,417.129242 
	C513.747253,416.122833 515.608948,416.633057 517.388611,416.614624 
	C523.889465,416.547150 523.891663,416.585327 523.911499,409.859467 
	C523.925293,405.199097 523.995483,400.537689 523.921021,395.878693 
	C523.873962,392.933807 525.141907,391.644348 528.105835,391.695007 
	C533.264038,391.783173 538.428101,391.825623 543.583435,391.673828 
	C546.970764,391.574097 548.423340,392.846954 548.313354,396.332123 
	C548.145386,401.652802 548.402222,406.986877 548.236938,412.307709 
	C548.135132,415.582672 549.449890,416.756775 552.651794,416.651947 
	C557.608643,416.489685 562.574707,416.609161 568.236328,416.609161 
	C568.236328,422.645721 568.267883,428.233124 568.221252,433.819855 
	C568.201782,436.150635 566.458557,436.331482 564.708374,436.343262 
	C561.046814,436.367889 557.369934,436.574799 553.727478,436.314117 
	C549.718872,436.027191 548.091980,437.301544 548.189148,441.585266 
	C548.442017,452.731384 548.232605,463.887207 548.307190,475.038483 
	C548.362915,483.365814 551.184570,485.831879 559.647583,485.720886 
	C562.332397,485.685669 564.762085,484.067444 568.227417,484.933960 
	C568.227417,490.830444 568.603210,496.953094 568.090515,503.000427 
	C567.768311,506.800446 563.920654,505.919220 560.799683,506.358612 
z"/>
<path fill="#000000" opacity="1.000000" stroke="none" 
	d="
M745.350281,568.423462 
	C745.350098,573.364319 745.350098,577.857544 745.350098,582.923828 
	C740.457458,583.839844 735.656250,583.442810 730.931824,583.306519 
	C726.991028,583.192749 725.179688,584.249756 725.275879,588.589661 
	C725.512329,599.250183 725.244751,609.920959 725.387695,620.584839 
	C725.518311,630.328186 730.322998,634.003723 739.984863,632.068359 
	C745.439941,630.975586 745.889465,631.347229 746.025696,637.106628 
	C746.061157,638.606018 746.076233,640.105957 746.084106,641.605774 
	C746.138733,652.027405 746.141785,652.070129 735.855103,653.145935 
	C730.011719,653.757080 724.178284,653.335876 718.508728,651.879761 
	C707.605591,649.079346 701.923706,641.172180 701.727966,628.294678 
	C701.530396,615.298584 701.503662,602.294556 701.744934,589.300293 
	C701.827576,584.847656 700.738220,583.034851 695.926880,583.274353 
	C688.899658,583.624207 688.883911,583.308228 688.902283,576.088379 
	C688.904785,575.088440 688.908142,574.088562 688.910950,573.088623 
	C688.937073,563.785950 688.924988,563.673157 698.291016,562.676697 
	C701.351807,562.351074 701.673096,560.643066 701.657104,558.263306 
	C701.621277,552.953979 701.645935,547.644226 701.645935,541.923462 
	C709.658691,541.923462 717.210449,541.923462 725.356628,541.923462 
	C725.356628,547.385986 725.467346,552.837280 725.315002,558.281128 
	C725.223999,561.533508 726.548096,562.770752 729.746704,562.680481 
	C734.710083,562.540283 739.680420,562.643372 744.277405,562.643372 
	C745.806458,564.636292 745.181885,566.364685 745.350281,568.423462 
z"/>
<path fill="#000000" opacity="1.000000" stroke="none" 
	d="
M579.348267,630.000000 
	C579.348450,637.481873 579.348450,644.463867 579.348450,652.210449 
	C571.608887,652.210449 564.208923,652.255066 556.810364,652.176880 
	C555.107361,652.158936 554.760315,650.725952 554.715210,649.304260 
	C554.667725,647.806580 554.654968,646.307251 554.654907,644.808655 
	C554.652039,607.669739 554.730652,570.530396 554.559753,533.392273 
	C554.536987,528.446350 555.542358,525.964966 561.075256,526.483276 
	C565.352966,526.883972 569.748169,526.822632 574.015503,526.322327 
	C578.429443,525.804993 579.429749,527.538086 579.407837,531.573486 
	C579.279419,555.221741 579.346375,578.871155 579.347290,602.520142 
	C579.347656,611.513428 579.347839,620.506714 579.348267,630.000000 
z"/>
<path fill="#000000" opacity="1.000000" stroke="none" 
	d="
M538.356689,583.000366 
	C538.357544,606.264832 538.357544,629.029358 538.357544,652.294128 
	C530.586121,652.294128 523.471375,652.348572 516.358093,652.268311 
	C513.355896,652.234436 513.686951,649.823364 513.680298,647.879150 
	C513.641846,636.719971 513.653381,625.560669 513.651733,614.401367 
	C513.649475,599.078186 513.816772,583.752075 513.550171,568.433472 
	C513.468689,563.752563 515.053589,562.281372 519.549377,562.574463 
	C524.358765,562.888062 529.208557,562.750977 534.033752,562.594971 
	C537.275696,562.490234 538.475342,563.813965 538.379578,567.012024 
	C538.225098,572.170471 538.349304,577.337219 538.356689,583.000366 
z"/>
<path fill="#000000" opacity="1.000000" stroke="none" 
	d="
M212.083313,505.163391 
	C201.672028,510.480591 192.054535,516.518372 181.652054,521.052246 
	C179.508194,521.986572 177.362045,523.174194 175.120636,521.327881 
	C172.746078,519.371948 172.710007,516.962952 173.322937,514.101379 
	C176.984604,497.005798 184.294922,481.308533 192.099487,465.874512 
	C195.462189,459.224518 202.171692,456.355621 209.364349,455.289703 
	C214.125183,454.584137 216.463745,458.048615 214.411041,462.539459 
	C212.612106,466.475098 210.486923,470.261200 208.672211,474.190216 
	C207.285843,477.191803 206.066711,480.290253 206.212509,484.182556 
	C213.297272,482.127289 219.182159,478.114960 225.303482,474.601807 
	C227.311325,473.449432 229.252380,471.753906 231.665573,473.613403 
	C234.056900,475.456146 234.420898,477.994537 233.935501,480.808350 
	C232.465683,489.328705 228.283478,496.012054 220.712936,500.392639 
	C217.975372,501.976654 215.178650,503.458435 212.083313,505.163391 
z"/>
<path fill="#000000" opacity="1.000000" stroke="none" 
	d="
M519.418945,554.114258 
	C513.028076,550.867981 510.379791,545.627258 510.955566,539.199158 
	C511.493561,533.193176 514.652039,528.614197 520.823853,526.671021 
	C526.702515,524.820190 533.377014,526.737671 536.972229,531.431641 
	C540.705933,536.306458 541.067200,543.452209 537.849243,548.778076 
	C534.931519,553.606995 528.668213,556.204590 522.683105,555.034912 
	C521.707031,554.844177 520.758362,554.513855 519.418945,554.114258 
z"/>
</svg>